<svg xmlns="http://www.w3.org/2000/svg" xmlns:xlink="http://www.w3.org/1999/xlink" width="500" zoomAndPan="magnify" viewBox="0 0 375.12 383.03998" height="500" preserveAspectRatio="xMidYMid meet" version="1.0"><defs><clipPath id="f77a2ded49"><path d="M 114 37.40625 L 260 37.40625 L 260 300.746094 L 114 300.746094 Z M 114 37.40625 " clip-rule="nonzero"/></clipPath><clipPath id="426fe380b5"><path d="M 114 37.40625 L 251 37.40625 L 251 300.746094 L 114 300.746094 Z M 114 37.40625 " clip-rule="nonzero"/></clipPath><clipPath id="24e0424839"><path d="M 50.726562 128 L 68 128 L 68 220 L 50.726562 220 Z M 50.726562 128 " clip-rule="nonzero"/></clipPath><clipPath id="ac4f2a269d"><path d="M 114 264 L 260 264 L 260 300.746094 L 114 300.746094 Z M 114 264 " clip-rule="nonzero"/></clipPath><clipPath id="b16f239516"><path d="M 114 264 L 251 264 L 251 300.746094 L 114 300.746094 Z M 114 264 " clip-rule="nonzero"/></clipPath><clipPath id="4e170254a1"><path d="M 159 37.40625 L 215 37.40625 L 215 56 L 159 56 Z M 159 37.40625 " clip-rule="nonzero"/></clipPath></defs><g clip-path="url(#f77a2ded49)"><path fill="#e9951c" d="M 248.042969 300.746094 L 125.550781 300.746094 C 119.289062 300.746094 114.207031 295.664062 114.207031 289.394531 L 114.207031 48.757812 C 114.207031 42.488281 119.289062 37.40625 125.550781 37.40625 L 248.042969 37.40625 C 254.304688 37.40625 259.382812 42.488281 259.382812 48.757812 L 259.382812 289.394531 C 259.382812 295.664062 254.304688 300.746094 248.042969 300.746094 " fill-opacity="1" fill-rule="nonzero"/></g><g clip-path="url(#426fe380b5)"><path fill="#f9ad2a" d="M 239.171875 300.746094 L 125.753906 300.746094 C 119.488281 300.746094 114.414062 295.664062 114.414062 289.394531 L 114.414062 48.757812 C 114.414062 42.488281 119.488281 37.40625 125.753906 37.40625 L 239.171875 37.40625 C 245.4375 37.40625 250.511719 42.488281 250.511719 48.757812 L 250.511719 289.394531 C 250.511719 295.664062 245.4375 300.746094 239.171875 300.746094 " fill-opacity="1" fill-rule="nonzero"/></g><path fill="#de393b" d="M 182.464844 214.480469 L 173.1875 214.480469 C 150.671875 214.480469 132.355469 196.148438 132.355469 173.617188 L 132.355469 159.996094 C 132.355469 157.488281 134.386719 155.457031 136.890625 155.457031 C 139.398438 155.457031 141.429688 157.488281 141.429688 159.996094 L 141.429688 173.617188 C 141.429688 191.140625 155.675781 205.398438 173.1875 205.398438 L 182.464844 205.398438 C 184.96875 205.398438 187 207.433594 187 209.9375 C 187 212.445312 184.96875 214.480469 182.464844 214.480469 " fill-opacity="1" fill-rule="nonzero"/><path fill="#c93535" d="M 173.1875 196.316406 L 200.40625 196.316406 L 200.40625 219.019531 L 173.1875 219.019531 L 173.1875 196.316406 " fill-opacity="1" fill-rule="nonzero"/><path fill="#f03e41" d="M 218.554688 169.078125 C 218.554688 186.628906 204.335938 200.859375 186.796875 200.859375 C 169.257812 200.859375 155.039062 186.628906 155.039062 169.078125 C 155.039062 151.523438 169.257812 137.296875 186.796875 137.296875 C 204.335938 137.296875 218.554688 151.523438 218.554688 169.078125 " fill-opacity="1" fill-rule="nonzero"/><path fill="#5699d5" d="M 80.265625 212.980469 C 78.46875 212.980469 76.765625 211.902344 76.054688 210.128906 C 71.40625 198.519531 69.046875 186.234375 69.046875 173.617188 C 69.046875 161 71.40625 148.714844 76.054688 137.101562 C 76.988281 134.777344 79.628906 133.648438 81.957031 134.582031 C 84.277344 135.511719 85.410156 138.15625 84.476562 140.484375 C 80.257812 151.015625 78.117188 162.160156 78.117188 173.617188 C 78.117188 185.070312 80.257812 196.21875 84.476562 206.75 C 85.410156 209.078125 84.277344 211.722656 81.957031 212.652344 C 81.398438 212.875 80.828125 212.980469 80.265625 212.980469 " fill-opacity="1" fill-rule="nonzero"/><g clip-path="url(#24e0424839)"><path fill="#79bfe9" d="M 63.277344 219.023438 C 61.476562 219.023438 59.773438 217.941406 59.0625 216.167969 C 53.644531 202.628906 50.898438 188.3125 50.898438 173.617188 C 50.898438 158.921875 53.644531 144.605469 59.0625 131.066406 C 59.992188 128.738281 62.636719 127.605469 64.960938 128.539062 C 67.289062 129.46875 68.417969 132.113281 67.488281 134.441406 C 62.5 146.90625 59.972656 160.085938 59.972656 173.617188 C 59.972656 187.148438 62.5 200.328125 67.488281 212.792969 C 68.417969 215.121094 67.289062 217.761719 64.960938 218.695312 C 64.410156 218.914062 63.835938 219.023438 63.277344 219.023438 " fill-opacity="1" fill-rule="nonzero"/></g><path fill="#79bfe9" d="M 96.0625 207.175781 C 94.261719 207.175781 92.5625 206.097656 91.851562 204.324219 C 87.941406 194.554688 85.957031 184.226562 85.957031 173.617188 C 85.957031 163.046875 87.925781 152.75 91.808594 143.015625 C 92.449219 141.285156 94.113281 140.054688 96.0625 140.054688 C 98.566406 140.054688 100.597656 142.085938 100.597656 144.59375 L 100.597656 144.597656 C 100.597656 145.175781 100.488281 145.75 100.273438 146.289062 C 96.792969 154.972656 95.03125 164.171875 95.03125 173.617188 C 95.03125 183.0625 96.792969 192.257812 100.273438 200.945312 C 101.207031 203.273438 100.074219 205.914062 97.75 206.847656 C 97.195312 207.070312 96.625 207.175781 96.0625 207.175781 " fill-opacity="1" fill-rule="nonzero"/><path fill="#5699d5" d="M 293.527344 212.980469 C 292.96875 212.980469 292.394531 212.875 291.84375 212.652344 C 289.515625 211.722656 288.386719 209.078125 289.320312 206.75 C 293.535156 196.214844 295.675781 185.070312 295.675781 173.617188 C 295.675781 162.164062 293.535156 151.015625 289.320312 140.480469 C 288.386719 138.15625 289.515625 135.511719 291.84375 134.582031 C 294.167969 133.648438 296.808594 134.773438 297.742188 137.101562 C 302.390625 148.714844 304.75 161 304.75 173.617188 C 304.75 186.234375 302.390625 198.515625 297.742188 210.128906 C 297.03125 211.902344 295.328125 212.980469 293.527344 212.980469 " fill-opacity="1" fill-rule="nonzero"/><path fill="#79bfe9" d="M 310.519531 219.023438 C 309.957031 219.023438 309.386719 218.914062 308.835938 218.695312 C 306.507812 217.761719 305.378906 215.121094 306.308594 212.792969 C 311.296875 200.328125 313.824219 187.148438 313.824219 173.617188 C 313.824219 160.085938 311.296875 146.90625 306.308594 134.441406 C 305.378906 132.113281 306.507812 129.46875 308.835938 128.539062 C 311.160156 127.605469 313.800781 128.738281 314.730469 131.066406 C 320.148438 144.605469 322.898438 158.921875 322.898438 173.617188 C 322.898438 188.3125 320.148438 202.628906 314.730469 216.167969 C 314.023438 217.941406 312.320312 219.023438 310.519531 219.023438 " fill-opacity="1" fill-rule="nonzero"/><path fill="#79bfe9" d="M 277.730469 207.175781 C 277.171875 207.175781 276.601562 207.070312 276.046875 206.847656 C 273.722656 205.914062 272.589844 203.273438 273.523438 200.945312 C 277 192.257812 278.765625 183.0625 278.765625 173.617188 C 278.765625 164.171875 277 154.972656 273.523438 146.289062 C 273.308594 145.75 273.195312 145.175781 273.195312 144.597656 C 273.195312 142.089844 275.226562 140.054688 277.734375 140.054688 C 279.703125 140.054688 281.378906 141.308594 282.007812 143.0625 C 285.875 152.785156 287.835938 163.0625 287.835938 173.617188 C 287.835938 184.226562 285.855469 194.554688 281.945312 204.324219 C 281.234375 206.097656 279.53125 207.175781 277.730469 207.175781 " fill-opacity="1" fill-rule="nonzero"/><path fill="#f03e41" d="M 142.089844 114.589844 L 140.769531 114.589844 C 133.628906 114.589844 127.820312 108.777344 127.820312 101.632812 L 127.820312 100.96875 C 127.820312 98.460938 129.851562 96.429688 132.355469 96.429688 C 134.859375 96.429688 136.890625 98.460938 136.890625 100.96875 L 136.890625 101.632812 C 136.890625 103.769531 138.632812 105.507812 140.769531 105.507812 L 142.089844 105.507812 C 144.226562 105.507812 145.964844 103.769531 145.964844 101.632812 C 145.964844 100.15625 145.144531 98.824219 143.824219 98.164062 L 134.976562 93.738281 C 130.5625 91.527344 127.820312 87.085938 127.820312 82.148438 C 127.820312 75 133.628906 69.1875 140.769531 69.1875 L 142.089844 69.1875 C 149.230469 69.1875 155.039062 75 155.039062 82.148438 L 155.039062 82.808594 C 155.039062 85.316406 153.007812 87.347656 150.503906 87.347656 C 147.996094 87.347656 145.964844 85.316406 145.964844 82.808594 L 145.964844 82.148438 C 145.964844 80.007812 144.226562 78.265625 142.089844 78.265625 L 140.769531 78.265625 C 138.632812 78.265625 136.890625 80.007812 136.890625 82.148438 C 136.890625 83.625 137.714844 84.953125 139.035156 85.613281 L 147.882812 90.042969 C 152.296875 92.25 155.039062 96.691406 155.039062 101.632812 C 155.039062 108.777344 149.230469 114.589844 142.089844 114.589844 " fill-opacity="1" fill-rule="nonzero"/><path fill="#f03e41" d="M 232.824219 114.589844 L 231.503906 114.589844 C 224.363281 114.589844 218.554688 108.777344 218.554688 101.632812 L 218.554688 100.96875 C 218.554688 98.460938 220.585938 96.429688 223.089844 96.429688 C 225.59375 96.429688 227.625 98.460938 227.625 100.96875 L 227.625 101.632812 C 227.625 103.769531 229.363281 105.507812 231.503906 105.507812 L 232.824219 105.507812 C 234.960938 105.507812 236.699219 103.769531 236.699219 101.632812 C 236.699219 100.15625 235.878906 98.824219 234.558594 98.164062 L 225.710938 93.738281 C 221.296875 91.527344 218.554688 87.085938 218.554688 82.148438 C 218.554688 75 224.363281 69.1875 231.503906 69.1875 L 232.824219 69.1875 C 239.964844 69.1875 245.773438 75 245.773438 82.148438 L 245.773438 82.808594 C 245.773438 85.316406 243.742188 87.347656 241.238281 87.347656 C 238.730469 87.347656 236.699219 85.316406 236.699219 82.808594 L 236.699219 82.148438 C 236.699219 80.007812 234.960938 78.265625 232.824219 78.265625 L 231.503906 78.265625 C 229.363281 78.265625 227.625 80.007812 227.625 82.148438 C 227.625 83.625 228.449219 84.953125 229.769531 85.613281 L 238.617188 90.042969 C 243.03125 92.25 245.773438 96.691406 245.773438 101.632812 C 245.773438 108.777344 239.964844 114.589844 232.824219 114.589844 " fill-opacity="1" fill-rule="nonzero"/><path fill="#f03e41" d="M 159.863281 111.632812 C 158.988281 109.28125 160.183594 106.667969 162.53125 105.796875 C 164.882812 104.921875 167.492188 106.117188 168.367188 108.46875 C 169.242188 110.820312 168.042969 113.433594 165.695312 114.304688 C 163.347656 115.179688 160.738281 113.984375 159.863281 111.632812 " fill-opacity="1" fill-rule="nonzero"/><path fill="#c93535" d="M 191.050781 167.492188 C 191.925781 169.84375 190.726562 172.457031 188.378906 173.332031 C 186.03125 174.207031 183.417969 173.007812 182.542969 170.660156 C 181.671875 168.308594 182.867188 165.695312 185.214844 164.820312 C 187.566406 163.945312 190.175781 165.144531 191.050781 167.492188 " fill-opacity="1" fill-rule="nonzero"/><path fill="#f03e41" d="M 204.941406 110.050781 C 204.941406 107.542969 206.972656 105.507812 209.480469 105.507812 C 211.984375 105.507812 214.015625 107.542969 214.015625 110.050781 C 214.015625 112.558594 211.984375 114.589844 209.480469 114.589844 C 206.972656 114.589844 204.941406 112.558594 204.941406 110.050781 " fill-opacity="1" fill-rule="nonzero"/><path fill="#f03e41" d="M 186.796875 78.265625 C 184.292969 78.265625 182.257812 80.304688 182.257812 82.808594 L 182.257812 100.96875 C 182.257812 103.472656 184.292969 105.507812 186.796875 105.507812 C 189.300781 105.507812 191.332031 103.472656 191.332031 100.96875 L 191.332031 82.808594 C 191.332031 80.304688 189.300781 78.265625 186.796875 78.265625 Z M 186.796875 114.589844 C 179.289062 114.589844 173.1875 108.480469 173.1875 100.96875 L 173.1875 82.808594 C 173.1875 75.296875 179.289062 69.1875 186.796875 69.1875 C 194.300781 69.1875 200.40625 75.296875 200.40625 82.808594 L 200.40625 100.96875 C 200.40625 108.480469 194.300781 114.589844 186.796875 114.589844 " fill-opacity="1" fill-rule="nonzero"/><g clip-path="url(#ac4f2a269d)"><path fill="#dbdad8" d="M 248.042969 300.746094 L 125.550781 300.746094 C 119.289062 300.746094 114.207031 295.664062 114.207031 289.394531 L 114.207031 264.421875 L 259.382812 264.421875 L 259.382812 289.394531 C 259.382812 295.664062 254.304688 300.746094 248.042969 300.746094 " fill-opacity="1" fill-rule="nonzero"/></g><g clip-path="url(#b16f239516)"><path fill="#ededed" d="M 239.171875 300.746094 L 125.753906 300.746094 C 119.488281 300.746094 114.414062 295.664062 114.414062 289.394531 L 114.414062 264.421875 L 250.511719 264.421875 L 250.511719 289.394531 C 250.511719 295.664062 245.4375 300.746094 239.171875 300.746094 " fill-opacity="1" fill-rule="nonzero"/></g><path fill="#cecdcb" d="M 200.40625 287.125 L 173.1875 287.125 L 173.1875 278.042969 L 200.40625 278.042969 L 200.40625 287.125 " fill-opacity="1" fill-rule="nonzero"/><path fill="#cecdcb" d="M 218.554688 287.125 L 209.480469 287.125 L 209.480469 278.042969 L 218.554688 278.042969 L 218.554688 287.125 " fill-opacity="1" fill-rule="nonzero"/><path fill="#f03e41" d="M 136.890625 159.988281 L 136.890625 159.996094 Z M 136.875 169.082031 C 135.199219 169.082031 133.554688 168.613281 132.097656 167.703125 C 130.039062 166.421875 128.601562 164.414062 128.054688 162.050781 C 127.507812 159.691406 127.910156 157.253906 129.191406 155.195312 C 130.472656 153.136719 132.476562 151.699219 134.839844 151.148438 C 137.199219 150.601562 139.632812 151.003906 141.691406 152.289062 C 143.746094 153.570312 145.179688 155.578125 145.730469 157.941406 C 146.277344 160.300781 145.875 162.738281 144.59375 164.796875 C 143.3125 166.855469 141.308594 168.292969 138.945312 168.839844 C 138.257812 169 137.5625 169.082031 136.875 169.082031 " fill-opacity="1" fill-rule="nonzero"/><g clip-path="url(#4e170254a1)"><path fill="#dbdad8" d="M 205.148438 55.566406 L 168.851562 55.566406 C 163.84375 55.566406 159.78125 51.5 159.78125 46.488281 C 159.78125 41.472656 163.84375 37.40625 168.851562 37.40625 L 205.148438 37.40625 C 210.15625 37.40625 214.21875 41.472656 214.21875 46.488281 C 214.21875 51.5 210.15625 55.566406 205.148438 55.566406 " fill-opacity="1" fill-rule="nonzero"/></g></svg>