<svg xmlns="http://www.w3.org/2000/svg" xmlns:xlink="http://www.w3.org/1999/xlink" width="500" zoomAndPan="magnify" viewBox="0 0 375.12 383.03998" height="500" preserveAspectRatio="xMidYMid meet" version="1.0"><defs><clipPath id="51faae0263"><path d="M 51 97 L 295 97 L 295 308 L 51 308 Z M 51 97 " clip-rule="nonzero"/></clipPath><clipPath id="7d282b6d62"><path d="M 19.992188 59.351562 L 314.378906 20.007812 L 353.722656 314.398438 L 59.332031 353.738281 Z M 19.992188 59.351562 " clip-rule="nonzero"/></clipPath><clipPath id="cf3c55a857"><path d="M 19.992188 59.351562 L 314.378906 20.007812 L 353.722656 314.398438 L 59.332031 353.738281 Z M 19.992188 59.351562 " clip-rule="nonzero"/></clipPath><clipPath id="8f874c1edd"><path d="M 19.992188 59.351562 L 314.378906 20.007812 L 353.722656 314.398438 L 59.332031 353.738281 Z M 19.992188 59.351562 " clip-rule="nonzero"/></clipPath><clipPath id="6099297465"><path d="M 165 37 L 319 37 L 319 207 L 165 207 Z M 165 37 " clip-rule="nonzero"/></clipPath><clipPath id="f5320b50cc"><path d="M 19.992188 59.351562 L 314.378906 20.007812 L 353.722656 314.398438 L 59.332031 353.738281 Z M 19.992188 59.351562 " clip-rule="nonzero"/></clipPath><clipPath id="3eb53a1ca6"><path d="M 19.992188 59.351562 L 314.378906 20.007812 L 353.722656 314.398438 L 59.332031 353.738281 Z M 19.992188 59.351562 " clip-rule="nonzero"/></clipPath><clipPath id="3322c52e56"><path d="M 19.992188 59.351562 L 314.378906 20.007812 L 353.722656 314.398438 L 59.332031 353.738281 Z M 19.992188 59.351562 " clip-rule="nonzero"/></clipPath><clipPath id="f0ea761957"><path d="M 187 61 L 297 61 L 297 126 L 187 126 Z M 187 61 " clip-rule="nonzero"/></clipPath><clipPath id="11005492a9"><path d="M 19.992188 59.351562 L 314.378906 20.007812 L 353.722656 314.398438 L 59.332031 353.738281 Z M 19.992188 59.351562 " clip-rule="nonzero"/></clipPath><clipPath id="85e2ca6864"><path d="M 19.992188 59.351562 L 314.378906 20.007812 L 353.722656 314.398438 L 59.332031 353.738281 Z M 19.992188 59.351562 " clip-rule="nonzero"/></clipPath><clipPath id="2774719571"><path d="M 19.992188 59.351562 L 314.378906 20.007812 L 353.722656 314.398438 L 59.332031 353.738281 Z M 19.992188 59.351562 " clip-rule="nonzero"/></clipPath><clipPath id="c1dd38398c"><path d="M 208 82 L 279 82 L 279 153 L 208 153 Z M 208 82 " clip-rule="nonzero"/></clipPath><clipPath id="58b3e8bc30"><path d="M 19.992188 59.351562 L 314.378906 20.007812 L 353.722656 314.398438 L 59.332031 353.738281 Z M 19.992188 59.351562 " clip-rule="nonzero"/></clipPath><clipPath id="cb633de4cd"><path d="M 19.992188 59.351562 L 314.378906 20.007812 L 353.722656 314.398438 L 59.332031 353.738281 Z M 19.992188 59.351562 " clip-rule="nonzero"/></clipPath><clipPath id="dd468492d9"><path d="M 19.992188 59.351562 L 314.378906 20.007812 L 353.722656 314.398438 L 59.332031 353.738281 Z M 19.992188 59.351562 " clip-rule="nonzero"/></clipPath><clipPath id="62acf15b2b"><path d="M 212 82 L 279 82 L 279 150 L 212 150 Z M 212 82 " clip-rule="nonzero"/></clipPath><clipPath id="3b4d6e7354"><path d="M 19.992188 59.351562 L 314.378906 20.007812 L 353.722656 314.398438 L 59.332031 353.738281 Z M 19.992188 59.351562 " clip-rule="nonzero"/></clipPath><clipPath id="eab9d32f8f"><path d="M 19.992188 59.351562 L 314.378906 20.007812 L 353.722656 314.398438 L 59.332031 353.738281 Z M 19.992188 59.351562 " clip-rule="nonzero"/></clipPath><clipPath id="e945a621e8"><path d="M 19.992188 59.351562 L 314.378906 20.007812 L 353.722656 314.398438 L 59.332031 353.738281 Z M 19.992188 59.351562 " clip-rule="nonzero"/></clipPath><clipPath id="a14f4bcf91"><path d="M 209 140 L 285 140 L 285 161 L 209 161 Z M 209 140 " clip-rule="nonzero"/></clipPath><clipPath id="7bfc4819d6"><path d="M 19.992188 59.351562 L 314.378906 20.007812 L 353.722656 314.398438 L 59.332031 353.738281 Z M 19.992188 59.351562 " clip-rule="nonzero"/></clipPath><clipPath id="45d4146c88"><path d="M 19.992188 59.351562 L 314.378906 20.007812 L 353.722656 314.398438 L 59.332031 353.738281 Z M 19.992188 59.351562 " clip-rule="nonzero"/></clipPath><clipPath id="388c610cc5"><path d="M 19.992188 59.351562 L 314.378906 20.007812 L 353.722656 314.398438 L 59.332031 353.738281 Z M 19.992188 59.351562 " clip-rule="nonzero"/></clipPath><clipPath id="ef868a6721"><path d="M 94 97 L 295 97 L 295 308 L 94 308 Z M 94 97 " clip-rule="nonzero"/></clipPath><clipPath id="1613d57d28"><path d="M 19.992188 59.351562 L 314.378906 20.007812 L 353.722656 314.398438 L 59.332031 353.738281 Z M 19.992188 59.351562 " clip-rule="nonzero"/></clipPath><clipPath id="1a5e6e190f"><path d="M 19.992188 59.351562 L 314.378906 20.007812 L 353.722656 314.398438 L 59.332031 353.738281 Z M 19.992188 59.351562 " clip-rule="nonzero"/></clipPath><clipPath id="2c36f64210"><path d="M 19.992188 59.351562 L 314.378906 20.007812 L 353.722656 314.398438 L 59.332031 353.738281 Z M 19.992188 59.351562 " clip-rule="nonzero"/></clipPath><clipPath id="f825d0baa4"><path d="M 211 140 L 285 140 L 285 161 L 211 161 Z M 211 140 " clip-rule="nonzero"/></clipPath><clipPath id="c24a3d8c93"><path d="M 19.992188 59.351562 L 314.378906 20.007812 L 353.722656 314.398438 L 59.332031 353.738281 Z M 19.992188 59.351562 " clip-rule="nonzero"/></clipPath><clipPath id="73d8224967"><path d="M 19.992188 59.351562 L 314.378906 20.007812 L 353.722656 314.398438 L 59.332031 353.738281 Z M 19.992188 59.351562 " clip-rule="nonzero"/></clipPath><clipPath id="f29920c94b"><path d="M 19.992188 59.351562 L 314.378906 20.007812 L 353.722656 314.398438 L 59.332031 353.738281 Z M 19.992188 59.351562 " clip-rule="nonzero"/></clipPath><clipPath id="a61f26f456"><path d="M 171 44 L 319 44 L 319 207 L 171 207 Z M 171 44 " clip-rule="nonzero"/></clipPath><clipPath id="8b9c6b8684"><path d="M 19.992188 59.351562 L 314.378906 20.007812 L 353.722656 314.398438 L 59.332031 353.738281 Z M 19.992188 59.351562 " clip-rule="nonzero"/></clipPath><clipPath id="dab4c081ad"><path d="M 19.992188 59.351562 L 314.378906 20.007812 L 353.722656 314.398438 L 59.332031 353.738281 Z M 19.992188 59.351562 " clip-rule="nonzero"/></clipPath><clipPath id="30feb83ae9"><path d="M 19.992188 59.351562 L 314.378906 20.007812 L 353.722656 314.398438 L 59.332031 353.738281 Z M 19.992188 59.351562 " clip-rule="nonzero"/></clipPath></defs><g clip-path="url(#51faae0263)"><g clip-path="url(#7d282b6d62)"><g clip-path="url(#cf3c55a857)"><g clip-path="url(#8f874c1edd)"><path fill="#60c0e9" d="M 51.820312 125.210938 C 51.90625 124.367188 52.03125 123.558594 52.203125 122.789062 C 53.234375 118.152344 56.332031 114.664062 60.808594 113.09375 L 102.5 98.464844 C 108.636719 96.308594 115.292969 98.800781 118.507812 104.453125 L 142.515625 146.660156 C 145.335938 151.613281 144.789062 157.507812 141.109375 161.863281 L 126.765625 178.828125 C 122.773438 183.546875 122.808594 189.949219 126.097656 195.1875 C 140.300781 217.820312 169.207031 239.9375 194.789062 247.683594 C 200.707031 249.476562 206.894531 247.832031 210.398438 242.742188 L 223.003906 224.449219 C 226.238281 219.753906 231.78125 217.679688 237.304688 219.097656 L 284.332031 231.179688 C 290.632812 232.800781 294.78125 238.566406 294.316406 245.054688 L 291.144531 289.125 C 290.804688 293.859375 288.25 297.761719 284.050781 299.972656 C 283.355469 300.339844 282.605469 300.675781 281.8125 300.976562 C 189.503906 336.339844 41.9375 223.566406 51.820312 125.210938 Z M 51.820312 125.210938 " fill-opacity="1" fill-rule="evenodd"/></g></g></g></g><g clip-path="url(#6099297465)"><g clip-path="url(#f5320b50cc)"><g clip-path="url(#3eb53a1ca6)"><g clip-path="url(#3322c52e56)"><path fill="#e5e9f7" d="M 174.171875 206.429688 L 215.421875 187.5 C 215.917969 187.269531 216.421875 187.246094 216.933594 187.421875 C 247.375 197.914062 282.386719 188.402344 303.007812 161.414062 C 328.773438 127.703125 322.332031 79.484375 288.617188 53.71875 C 254.902344 27.953125 206.6875 34.398438 180.921875 68.109375 C 160.296875 95.097656 160.3125 131.378906 178.429688 157.996094 C 178.734375 158.445312 178.84375 158.9375 178.753906 159.472656 L 171.316406 204.25 C 171.191406 205.011719 171.472656 205.730469 172.085938 206.199219 C 172.703125 206.667969 173.46875 206.753906 174.171875 206.429688 Z M 174.171875 206.429688 " fill-opacity="1" fill-rule="evenodd"/></g></g></g></g><g clip-path="url(#f0ea761957)"><g clip-path="url(#11005492a9)"><g clip-path="url(#85e2ca6864)"><g clip-path="url(#2774719571)"><path fill="#f14b4e" d="M 270.464844 72.679688 C 271.628906 71.15625 273.808594 70.863281 275.332031 72.027344 C 276.855469 73.191406 277.148438 75.371094 275.984375 76.894531 L 271.214844 83.132812 C 270.050781 84.65625 267.871094 84.949219 266.347656 83.785156 C 264.824219 82.621094 264.535156 80.441406 265.699219 78.917969 Z M 191.675781 125.789062 C 189.773438 126.042969 188.027344 124.707031 187.773438 122.808594 C 187.519531 120.90625 188.855469 119.160156 190.753906 118.90625 L 198.371094 117.886719 C 200.273438 117.632812 202.019531 118.96875 202.273438 120.871094 C 202.527344 122.769531 201.191406 124.519531 199.292969 124.773438 Z M 285.769531 113.214844 C 283.867188 113.46875 282.121094 112.132812 281.867188 110.234375 C 281.613281 108.332031 282.949219 106.585938 284.847656 106.328125 L 292.464844 105.3125 C 294.367188 105.058594 296.113281 106.394531 296.367188 108.292969 C 296.621094 110.195312 295.285156 111.945312 293.386719 112.199219 Z M 231.832031 65.15625 C 231.578125 63.257812 232.914062 61.507812 234.816406 61.253906 C 236.714844 61 238.464844 62.335938 238.71875 64.238281 L 239.792969 72.289062 C 240.046875 74.191406 238.710938 75.9375 236.8125 76.191406 C 234.910156 76.445312 233.164062 75.109375 232.910156 73.210938 Z M 199.199219 87.15625 C 197.675781 85.992188 197.382812 83.8125 198.546875 82.289062 C 199.710938 80.765625 201.890625 80.472656 203.414062 81.640625 L 209.652344 86.40625 C 211.175781 87.570312 211.46875 89.75 210.304688 91.273438 C 209.136719 92.796875 206.957031 93.085938 205.433594 91.921875 Z M 199.199219 87.15625 " fill-opacity="1" fill-rule="evenodd"/></g></g></g></g><g clip-path="url(#c1dd38398c)"><g clip-path="url(#58b3e8bc30)"><g clip-path="url(#cb633de4cd)"><g clip-path="url(#dd468492d9)"><path fill="#f14b4e" d="M 275.933594 144.128906 L 216.902344 152.019531 C 215 152.273438 213.253906 150.9375 213 149.035156 L 209.113281 119.957031 C 207.917969 111.011719 210.488281 102.390625 215.59375 95.710938 C 220.699219 89.03125 228.34375 84.285156 237.289062 83.089844 L 238.164062 82.972656 C 247.109375 81.777344 255.730469 84.347656 262.410156 89.453125 C 269.089844 94.558594 273.832031 102.203125 275.027344 111.148438 L 278.914062 140.226562 C 279.167969 142.128906 277.832031 143.875 275.933594 144.128906 Z M 275.933594 144.128906 " fill-opacity="1" fill-rule="evenodd"/></g></g></g></g><g clip-path="url(#62acf15b2b)"><g clip-path="url(#3b4d6e7354)"><g clip-path="url(#eab9d32f8f)"><g clip-path="url(#e945a621e8)"><path fill="#cc2a2e" d="M 249.402344 144.171875 C 249.65625 146.070312 248.320312 147.820312 246.417969 148.074219 C 244.515625 148.328125 242.769531 146.992188 242.515625 145.089844 L 214.363281 148.851562 C 213.894531 148.914062 213.449219 149.03125 213.023438 149.195312 C 213.015625 149.140625 213.007812 149.089844 213 149.035156 L 212.640625 146.367188 L 242.160156 142.421875 L 239.632812 123.53125 C 239.378906 121.632812 240.714844 119.882812 242.617188 119.628906 C 244.515625 119.375 246.265625 120.710938 246.519531 122.613281 L 249.042969 141.5 L 255.191406 140.679688 C 266.507812 138.53125 271.714844 133.546875 270.800781 125.71875 L 268.71875 110.152344 C 267.523438 101.203125 262.777344 93.5625 256.101562 88.457031 C 252.644531 85.816406 248.664062 83.851562 244.394531 82.738281 C 251.050781 83.125 257.296875 85.546875 262.410156 89.453125 C 269.089844 94.558594 273.832031 102.203125 275.027344 111.148438 L 278.914062 140.226562 C 278.921875 140.28125 278.929688 140.332031 278.933594 140.386719 C 278.480469 140.339844 278.015625 140.347656 277.550781 140.410156 L 272.335938 141.105469 Z M 249.402344 144.171875 " fill-opacity="1" fill-rule="evenodd"/></g></g></g></g><g clip-path="url(#a14f4bcf91)"><g clip-path="url(#7bfc4819d6)"><g clip-path="url(#45d4146c88)"><g clip-path="url(#388c610cc5)"><path fill="#292e3c" d="M 214.363281 148.851562 L 277.550781 140.410156 C 280.796875 139.976562 283.808594 142.277344 284.242188 145.523438 C 284.675781 148.769531 282.375 151.78125 279.125 152.214844 L 215.941406 160.660156 C 212.695312 161.09375 209.683594 158.792969 209.25 155.546875 L 209.25 155.542969 C 208.816406 152.296875 211.117188 149.285156 214.363281 148.851562 Z M 214.363281 148.851562 " fill-opacity="1" fill-rule="evenodd"/></g></g></g></g><g clip-path="url(#ef868a6721)"><g clip-path="url(#1613d57d28)"><g clip-path="url(#1a5e6e190f)"><g clip-path="url(#2c36f64210)"><path fill="#27aae2" d="M 94.84375 101.148438 L 102.5 98.464844 C 108.636719 96.308594 115.292969 98.800781 118.507812 104.453125 L 142.515625 146.660156 C 145.335938 151.613281 144.789062 157.507812 141.109375 161.863281 L 126.765625 178.828125 C 122.773438 183.546875 122.808594 189.949219 126.097656 195.1875 C 139.914062 217.207031 167.644531 238.734375 192.699219 247.019531 C 193.398438 247.253906 194.09375 247.472656 194.789062 247.683594 C 197.726562 248.574219 200.730469 248.617188 203.441406 247.8125 C 195.101562 252.21875 186.730469 253.085938 178.335938 250.410156 C 152.75 242.664062 123.847656 220.546875 109.640625 197.910156 C 106.355469 192.675781 106.320312 186.273438 110.308594 181.550781 L 124.652344 164.589844 C 128.332031 160.234375 128.878906 154.339844 126.058594 149.382812 L 102.050781 107.175781 C 100.386719 104.253906 97.804688 102.175781 94.84375 101.148438 Z M 224.394531 222.734375 C 227.695312 219.269531 232.507812 217.867188 237.304688 219.097656 L 284.332031 231.179688 C 290.632812 232.800781 294.78125 238.566406 294.316406 245.054688 L 291.144531 289.125 C 290.804688 293.859375 288.25 297.761719 284.050781 299.972656 C 283.355469 300.339844 282.605469 300.675781 281.8125 300.976562 C 273.042969 304.335938 263.777344 306.351562 254.191406 307.175781 C 257.988281 306.234375 261.722656 305.097656 265.359375 303.703125 C 266.152344 303.398438 266.898438 303.0625 267.59375 302.695312 C 271.796875 300.488281 274.347656 296.582031 274.691406 291.847656 L 277.859375 247.78125 C 278.328125 241.292969 274.179688 235.527344 267.875 233.90625 Z M 224.394531 222.734375 " fill-opacity="1" fill-rule="evenodd"/></g></g></g></g><g clip-path="url(#f825d0baa4)"><g clip-path="url(#c24a3d8c93)"><g clip-path="url(#73d8224967)"><g clip-path="url(#f29920c94b)"><path fill="#08090c" d="M 280.484375 144.449219 C 280.917969 147.695312 278.617188 150.707031 275.371094 151.140625 L 212.183594 159.585938 C 212.035156 159.605469 211.886719 159.617188 211.738281 159.628906 C 212.921875 160.457031 214.40625 160.863281 215.941406 160.660156 L 279.125 152.214844 C 282.375 151.78125 284.675781 148.769531 284.242188 145.523438 C 283.871094 142.746094 281.609375 140.660156 278.933594 140.386719 C 278.625 140.355469 278.3125 140.347656 277.996094 140.367188 C 278.328125 140.597656 278.636719 140.867188 278.914062 141.160156 C 279.742188 142.035156 280.3125 143.167969 280.484375 144.449219 Z M 280.484375 144.449219 " fill-opacity="1" fill-rule="evenodd"/></g></g></g></g><g clip-path="url(#a61f26f456)"><g clip-path="url(#8b9c6b8684)"><g clip-path="url(#dab4c081ad)"><g clip-path="url(#30feb83ae9)"><path fill="#c5cff2" d="M 174.171875 206.429688 L 215.421875 187.5 C 215.917969 187.269531 216.421875 187.246094 216.933594 187.421875 C 247.375 197.914062 282.386719 188.402344 303.007812 161.414062 C 328.773438 127.703125 322.332031 79.484375 288.617188 53.71875 C 283.394531 49.726562 277.820312 46.507812 272.039062 44.046875 C 274.625 45.578125 277.148438 47.273438 279.59375 49.140625 C 313.308594 74.90625 319.753906 123.125 293.988281 156.839844 C 273.363281 183.824219 238.351562 193.339844 207.914062 182.847656 C 207.398438 182.671875 206.894531 182.695312 206.402344 182.921875 L 172.253906 198.59375 L 171.316406 204.25 C 171.191406 205.011719 171.472656 205.730469 172.085938 206.199219 C 172.703125 206.667969 173.46875 206.753906 174.171875 206.429688 Z M 174.171875 206.429688 " fill-opacity="1" fill-rule="evenodd"/></g></g></g></g></svg>