<svg xmlns="http://www.w3.org/2000/svg" xmlns:xlink="http://www.w3.org/1999/xlink" width="500" zoomAndPan="magnify" viewBox="0 0 375.12 383.03998" height="500" preserveAspectRatio="xMidYMid meet" version="1.0"><defs><clipPath id="76a129ab96"><path d="M 87 82 L 272 82 L 272 288 L 87 288 Z M 87 82 " clip-rule="nonzero"/></clipPath><clipPath id="e0735bbed4"><path d="M 20.960938 43.433594 L 326.433594 15.691406 L 353.09375 309.246094 L 47.621094 336.988281 Z M 20.960938 43.433594 " clip-rule="nonzero"/></clipPath><clipPath id="f12d11286a"><path d="M 20.960938 43.433594 L 326.433594 15.691406 L 353.09375 309.246094 L 47.621094 336.988281 Z M 20.960938 43.433594 " clip-rule="nonzero"/></clipPath><clipPath id="8b75ac0785"><path d="M 20.960938 43.433594 L 326.433594 15.691406 L 353.09375 309.246094 L 47.621094 336.988281 Z M 20.960938 43.433594 " clip-rule="nonzero"/></clipPath><clipPath id="da3c0e37f6"><path d="M 99 95 L 258 95 L 258 274 L 99 274 Z M 99 95 " clip-rule="nonzero"/></clipPath><clipPath id="e7bb6d2c8b"><path d="M 20.960938 43.433594 L 326.433594 15.691406 L 353.09375 309.246094 L 47.621094 336.988281 Z M 20.960938 43.433594 " clip-rule="nonzero"/></clipPath><clipPath id="7e3667be45"><path d="M 20.960938 43.433594 L 326.433594 15.691406 L 353.09375 309.246094 L 47.621094 336.988281 Z M 20.960938 43.433594 " clip-rule="nonzero"/></clipPath><clipPath id="cc47f56456"><path d="M 20.960938 43.433594 L 326.433594 15.691406 L 353.09375 309.246094 L 47.621094 336.988281 Z M 20.960938 43.433594 " clip-rule="nonzero"/></clipPath><clipPath id="bf29125276"><path d="M 111 95 L 258 95 L 258 274 L 111 274 Z M 111 95 " clip-rule="nonzero"/></clipPath><clipPath id="384de836a4"><path d="M 20.960938 43.433594 L 326.433594 15.691406 L 353.09375 309.246094 L 47.621094 336.988281 Z M 20.960938 43.433594 " clip-rule="nonzero"/></clipPath><clipPath id="fe57301365"><path d="M 20.960938 43.433594 L 326.433594 15.691406 L 353.09375 309.246094 L 47.621094 336.988281 Z M 20.960938 43.433594 " clip-rule="nonzero"/></clipPath><clipPath id="5b4720f936"><path d="M 20.960938 43.433594 L 326.433594 15.691406 L 353.09375 309.246094 L 47.621094 336.988281 Z M 20.960938 43.433594 " clip-rule="nonzero"/></clipPath><clipPath id="2d1e52b64f"><path d="M 199 176 L 272 176 L 272 272 L 199 272 Z M 199 176 " clip-rule="nonzero"/></clipPath><clipPath id="6a52ef9882"><path d="M 20.960938 43.433594 L 326.433594 15.691406 L 353.09375 309.246094 L 47.621094 336.988281 Z M 20.960938 43.433594 " clip-rule="nonzero"/></clipPath><clipPath id="ba1beccc78"><path d="M 20.960938 43.433594 L 326.433594 15.691406 L 353.09375 309.246094 L 47.621094 336.988281 Z M 20.960938 43.433594 " clip-rule="nonzero"/></clipPath><clipPath id="d04bd4e5a7"><path d="M 20.960938 43.433594 L 326.433594 15.691406 L 353.09375 309.246094 L 47.621094 336.988281 Z M 20.960938 43.433594 " clip-rule="nonzero"/></clipPath><clipPath id="ab893ee285"><path d="M 90 243 L 296 243 L 296 319 L 90 319 Z M 90 243 " clip-rule="nonzero"/></clipPath><clipPath id="f9e603d6ed"><path d="M 20.960938 43.433594 L 326.433594 15.691406 L 353.09375 309.246094 L 47.621094 336.988281 Z M 20.960938 43.433594 " clip-rule="nonzero"/></clipPath><clipPath id="46469689ab"><path d="M 20.960938 43.433594 L 326.433594 15.691406 L 353.09375 309.246094 L 47.621094 336.988281 Z M 20.960938 43.433594 " clip-rule="nonzero"/></clipPath><clipPath id="3368ab4112"><path d="M 20.960938 43.433594 L 326.433594 15.691406 L 353.09375 309.246094 L 47.621094 336.988281 Z M 20.960938 43.433594 " clip-rule="nonzero"/></clipPath><clipPath id="6f1bbcd471"><path d="M 107 271 L 141 271 L 141 304 L 107 304 Z M 107 271 " clip-rule="nonzero"/></clipPath><clipPath id="d20f461fab"><path d="M 20.960938 43.433594 L 326.433594 15.691406 L 353.09375 309.246094 L 47.621094 336.988281 Z M 20.960938 43.433594 " clip-rule="nonzero"/></clipPath><clipPath id="c963736ba1"><path d="M 20.960938 43.433594 L 326.433594 15.691406 L 353.09375 309.246094 L 47.621094 336.988281 Z M 20.960938 43.433594 " clip-rule="nonzero"/></clipPath><clipPath id="86d0d523ff"><path d="M 20.960938 43.433594 L 326.433594 15.691406 L 353.09375 309.246094 L 47.621094 336.988281 Z M 20.960938 43.433594 " clip-rule="nonzero"/></clipPath><clipPath id="716c12991a"><path d="M 84 278 L 306 278 L 306 334 L 84 334 Z M 84 278 " clip-rule="nonzero"/></clipPath><clipPath id="64b1139ed8"><path d="M 20.960938 43.433594 L 326.433594 15.691406 L 353.09375 309.246094 L 47.621094 336.988281 Z M 20.960938 43.433594 " clip-rule="nonzero"/></clipPath><clipPath id="db9dff562c"><path d="M 20.960938 43.433594 L 326.433594 15.691406 L 353.09375 309.246094 L 47.621094 336.988281 Z M 20.960938 43.433594 " clip-rule="nonzero"/></clipPath><clipPath id="4649f386eb"><path d="M 20.960938 43.433594 L 326.433594 15.691406 L 353.09375 309.246094 L 47.621094 336.988281 Z M 20.960938 43.433594 " clip-rule="nonzero"/></clipPath><clipPath id="f231734c66"><path d="M 94 311 L 130 311 L 130 326 L 94 326 Z M 94 311 " clip-rule="nonzero"/></clipPath><clipPath id="c315373ec7"><path d="M 20.960938 43.433594 L 326.433594 15.691406 L 353.09375 309.246094 L 47.621094 336.988281 Z M 20.960938 43.433594 " clip-rule="nonzero"/></clipPath><clipPath id="9e6826543a"><path d="M 20.960938 43.433594 L 326.433594 15.691406 L 353.09375 309.246094 L 47.621094 336.988281 Z M 20.960938 43.433594 " clip-rule="nonzero"/></clipPath><clipPath id="25d6407b30"><path d="M 20.960938 43.433594 L 326.433594 15.691406 L 353.09375 309.246094 L 47.621094 336.988281 Z M 20.960938 43.433594 " clip-rule="nonzero"/></clipPath><clipPath id="22441475c5"><path d="M 85 278 L 306 278 L 306 334 L 85 334 Z M 85 278 " clip-rule="nonzero"/></clipPath><clipPath id="db5e750e9a"><path d="M 20.960938 43.433594 L 326.433594 15.691406 L 353.09375 309.246094 L 47.621094 336.988281 Z M 20.960938 43.433594 " clip-rule="nonzero"/></clipPath><clipPath id="d6ec323b8c"><path d="M 20.960938 43.433594 L 326.433594 15.691406 L 353.09375 309.246094 L 47.621094 336.988281 Z M 20.960938 43.433594 " clip-rule="nonzero"/></clipPath><clipPath id="fea5e50599"><path d="M 20.960938 43.433594 L 326.433594 15.691406 L 353.09375 309.246094 L 47.621094 336.988281 Z M 20.960938 43.433594 " clip-rule="nonzero"/></clipPath><clipPath id="e57b6a7df8"><path d="M 136 32 L 160 32 L 160 70 L 136 70 Z M 136 32 " clip-rule="nonzero"/></clipPath><clipPath id="218a858c75"><path d="M 20.960938 43.433594 L 326.433594 15.691406 L 353.09375 309.246094 L 47.621094 336.988281 Z M 20.960938 43.433594 " clip-rule="nonzero"/></clipPath><clipPath id="d5287a7e27"><path d="M 20.960938 43.433594 L 326.433594 15.691406 L 353.09375 309.246094 L 47.621094 336.988281 Z M 20.960938 43.433594 " clip-rule="nonzero"/></clipPath><clipPath id="947c2ca688"><path d="M 20.960938 43.433594 L 326.433594 15.691406 L 353.09375 309.246094 L 47.621094 336.988281 Z M 20.960938 43.433594 " clip-rule="nonzero"/></clipPath><clipPath id="dd6cf2e4d0"><path d="M 49 89 L 86 89 L 86 116 L 49 116 Z M 49 89 " clip-rule="nonzero"/></clipPath><clipPath id="a2d315bfe9"><path d="M 20.960938 43.433594 L 326.433594 15.691406 L 353.09375 309.246094 L 47.621094 336.988281 Z M 20.960938 43.433594 " clip-rule="nonzero"/></clipPath><clipPath id="e78eef7cf4"><path d="M 20.960938 43.433594 L 326.433594 15.691406 L 353.09375 309.246094 L 47.621094 336.988281 Z M 20.960938 43.433594 " clip-rule="nonzero"/></clipPath><clipPath id="a4d3aa594a"><path d="M 20.960938 43.433594 L 326.433594 15.691406 L 353.09375 309.246094 L 47.621094 336.988281 Z M 20.960938 43.433594 " clip-rule="nonzero"/></clipPath><clipPath id="fed0b65224"><path d="M 33 174 L 72 174 L 72 192 L 33 192 Z M 33 174 " clip-rule="nonzero"/></clipPath><clipPath id="d39f0b69fa"><path d="M 20.960938 43.433594 L 326.433594 15.691406 L 353.09375 309.246094 L 47.621094 336.988281 Z M 20.960938 43.433594 " clip-rule="nonzero"/></clipPath><clipPath id="8d53679aa8"><path d="M 20.960938 43.433594 L 326.433594 15.691406 L 353.09375 309.246094 L 47.621094 336.988281 Z M 20.960938 43.433594 " clip-rule="nonzero"/></clipPath><clipPath id="f0dc6ee01c"><path d="M 20.960938 43.433594 L 326.433594 15.691406 L 353.09375 309.246094 L 47.621094 336.988281 Z M 20.960938 43.433594 " clip-rule="nonzero"/></clipPath><clipPath id="e38d190a84"><path d="M 270 132 L 308 132 L 308 153 L 270 153 Z M 270 132 " clip-rule="nonzero"/></clipPath><clipPath id="41aed43445"><path d="M 20.960938 43.433594 L 326.433594 15.691406 L 353.09375 309.246094 L 47.621094 336.988281 Z M 20.960938 43.433594 " clip-rule="nonzero"/></clipPath><clipPath id="c2c438e1ed"><path d="M 20.960938 43.433594 L 326.433594 15.691406 L 353.09375 309.246094 L 47.621094 336.988281 Z M 20.960938 43.433594 " clip-rule="nonzero"/></clipPath><clipPath id="c8b2a7cc2d"><path d="M 20.960938 43.433594 L 326.433594 15.691406 L 353.09375 309.246094 L 47.621094 336.988281 Z M 20.960938 43.433594 " clip-rule="nonzero"/></clipPath><clipPath id="73113c2464"><path d="M 235 62 L 269 62 L 269 95 L 235 95 Z M 235 62 " clip-rule="nonzero"/></clipPath><clipPath id="c94b59e633"><path d="M 20.960938 43.433594 L 326.433594 15.691406 L 353.09375 309.246094 L 47.621094 336.988281 Z M 20.960938 43.433594 " clip-rule="nonzero"/></clipPath><clipPath id="d5c174213b"><path d="M 20.960938 43.433594 L 326.433594 15.691406 L 353.09375 309.246094 L 47.621094 336.988281 Z M 20.960938 43.433594 " clip-rule="nonzero"/></clipPath><clipPath id="9a6d855f42"><path d="M 20.960938 43.433594 L 326.433594 15.691406 L 353.09375 309.246094 L 47.621094 336.988281 Z M 20.960938 43.433594 " clip-rule="nonzero"/></clipPath><clipPath id="d7dbf67e40"><path d="M 197 169 L 352 169 L 352 310 L 197 310 Z M 197 169 " clip-rule="nonzero"/></clipPath><clipPath id="c0085d28af"><path d="M 20.960938 43.433594 L 326.433594 15.691406 L 353.09375 309.246094 L 47.621094 336.988281 Z M 20.960938 43.433594 " clip-rule="nonzero"/></clipPath><clipPath id="77239a6f78"><path d="M 20.960938 43.433594 L 326.433594 15.691406 L 353.09375 309.246094 L 47.621094 336.988281 Z M 20.960938 43.433594 " clip-rule="nonzero"/></clipPath><clipPath id="b133405c5b"><path d="M 20.960938 43.433594 L 326.433594 15.691406 L 353.09375 309.246094 L 47.621094 336.988281 Z M 20.960938 43.433594 " clip-rule="nonzero"/></clipPath><clipPath id="9b4510ca78"><path d="M 201 292 L 319 292 L 319 309 L 201 309 Z M 201 292 " clip-rule="nonzero"/></clipPath><clipPath id="89173f52c1"><path d="M 20.960938 43.433594 L 326.433594 15.691406 L 353.09375 309.246094 L 47.621094 336.988281 Z M 20.960938 43.433594 " clip-rule="nonzero"/></clipPath><clipPath id="9235c65fea"><path d="M 20.960938 43.433594 L 326.433594 15.691406 L 353.09375 309.246094 L 47.621094 336.988281 Z M 20.960938 43.433594 " clip-rule="nonzero"/></clipPath><clipPath id="63c48a90da"><path d="M 20.960938 43.433594 L 326.433594 15.691406 L 353.09375 309.246094 L 47.621094 336.988281 Z M 20.960938 43.433594 " clip-rule="nonzero"/></clipPath><clipPath id="6c5b674a34"><path d="M 293 179 L 352 179 L 352 307 L 293 307 Z M 293 179 " clip-rule="nonzero"/></clipPath><clipPath id="48855b03b1"><path d="M 20.960938 43.433594 L 326.433594 15.691406 L 353.09375 309.246094 L 47.621094 336.988281 Z M 20.960938 43.433594 " clip-rule="nonzero"/></clipPath><clipPath id="c76c6902e2"><path d="M 20.960938 43.433594 L 326.433594 15.691406 L 353.09375 309.246094 L 47.621094 336.988281 Z M 20.960938 43.433594 " clip-rule="nonzero"/></clipPath><clipPath id="dfa10913c5"><path d="M 20.960938 43.433594 L 326.433594 15.691406 L 353.09375 309.246094 L 47.621094 336.988281 Z M 20.960938 43.433594 " clip-rule="nonzero"/></clipPath><clipPath id="6dac41fcd8"><path d="M 265 201 L 300 201 L 300 261 L 265 261 Z M 265 201 " clip-rule="nonzero"/></clipPath><clipPath id="b13e9389ac"><path d="M 20.960938 43.433594 L 326.433594 15.691406 L 353.09375 309.246094 L 47.621094 336.988281 Z M 20.960938 43.433594 " clip-rule="nonzero"/></clipPath><clipPath id="944fd89d9d"><path d="M 20.960938 43.433594 L 326.433594 15.691406 L 353.09375 309.246094 L 47.621094 336.988281 Z M 20.960938 43.433594 " clip-rule="nonzero"/></clipPath><clipPath id="54d695b7e6"><path d="M 20.960938 43.433594 L 326.433594 15.691406 L 353.09375 309.246094 L 47.621094 336.988281 Z M 20.960938 43.433594 " clip-rule="nonzero"/></clipPath><clipPath id="bca823b4c6"><path d="M 260 270 L 288 270 L 288 292 L 260 292 Z M 260 270 " clip-rule="nonzero"/></clipPath><clipPath id="206c6b52bb"><path d="M 20.960938 43.433594 L 326.433594 15.691406 L 353.09375 309.246094 L 47.621094 336.988281 Z M 20.960938 43.433594 " clip-rule="nonzero"/></clipPath><clipPath id="9b87ff8ae5"><path d="M 20.960938 43.433594 L 326.433594 15.691406 L 353.09375 309.246094 L 47.621094 336.988281 Z M 20.960938 43.433594 " clip-rule="nonzero"/></clipPath><clipPath id="427a0456b8"><path d="M 20.960938 43.433594 L 326.433594 15.691406 L 353.09375 309.246094 L 47.621094 336.988281 Z M 20.960938 43.433594 " clip-rule="nonzero"/></clipPath><clipPath id="ff4f42f11d"><path d="M 259 193 L 291 193 L 291 256 L 259 256 Z M 259 193 " clip-rule="nonzero"/></clipPath><clipPath id="ecedd3a25c"><path d="M 20.960938 43.433594 L 326.433594 15.691406 L 353.09375 309.246094 L 47.621094 336.988281 Z M 20.960938 43.433594 " clip-rule="nonzero"/></clipPath><clipPath id="5a32b27ff5"><path d="M 20.960938 43.433594 L 326.433594 15.691406 L 353.09375 309.246094 L 47.621094 336.988281 Z M 20.960938 43.433594 " clip-rule="nonzero"/></clipPath><clipPath id="20ea7855e8"><path d="M 20.960938 43.433594 L 326.433594 15.691406 L 353.09375 309.246094 L 47.621094 336.988281 Z M 20.960938 43.433594 " clip-rule="nonzero"/></clipPath><clipPath id="9fdc0ad775"><path d="M 256 265 L 283 265 L 283 289 L 256 289 Z M 256 265 " clip-rule="nonzero"/></clipPath><clipPath id="590a9f8c0b"><path d="M 20.960938 43.433594 L 326.433594 15.691406 L 353.09375 309.246094 L 47.621094 336.988281 Z M 20.960938 43.433594 " clip-rule="nonzero"/></clipPath><clipPath id="ebdbc73cff"><path d="M 20.960938 43.433594 L 326.433594 15.691406 L 353.09375 309.246094 L 47.621094 336.988281 Z M 20.960938 43.433594 " clip-rule="nonzero"/></clipPath><clipPath id="06b2cedd0f"><path d="M 20.960938 43.433594 L 326.433594 15.691406 L 353.09375 309.246094 L 47.621094 336.988281 Z M 20.960938 43.433594 " clip-rule="nonzero"/></clipPath><clipPath id="9be8ffc62a"><path d="M 210 226 L 247 226 L 247 279 L 210 279 Z M 210 226 " clip-rule="nonzero"/></clipPath><clipPath id="e7575c5434"><path d="M 20.960938 43.433594 L 326.433594 15.691406 L 353.09375 309.246094 L 47.621094 336.988281 Z M 20.960938 43.433594 " clip-rule="nonzero"/></clipPath><clipPath id="d64eaa0f41"><path d="M 20.960938 43.433594 L 326.433594 15.691406 L 353.09375 309.246094 L 47.621094 336.988281 Z M 20.960938 43.433594 " clip-rule="nonzero"/></clipPath><clipPath id="95d778eefb"><path d="M 20.960938 43.433594 L 326.433594 15.691406 L 353.09375 309.246094 L 47.621094 336.988281 Z M 20.960938 43.433594 " clip-rule="nonzero"/></clipPath><clipPath id="1ec0ca3ae1"><path d="M 250 203 L 262 203 L 262 217 L 250 217 Z M 250 203 " clip-rule="nonzero"/></clipPath><clipPath id="e757bf3a14"><path d="M 20.960938 43.433594 L 326.433594 15.691406 L 353.09375 309.246094 L 47.621094 336.988281 Z M 20.960938 43.433594 " clip-rule="nonzero"/></clipPath><clipPath id="2790ffa3cd"><path d="M 20.960938 43.433594 L 326.433594 15.691406 L 353.09375 309.246094 L 47.621094 336.988281 Z M 20.960938 43.433594 " clip-rule="nonzero"/></clipPath><clipPath id="ae1701870e"><path d="M 20.960938 43.433594 L 326.433594 15.691406 L 353.09375 309.246094 L 47.621094 336.988281 Z M 20.960938 43.433594 " clip-rule="nonzero"/></clipPath><clipPath id="9ba294087e"><path d="M 109 112 L 148 112 L 148 163 L 109 163 Z M 109 112 " clip-rule="nonzero"/></clipPath><clipPath id="fbbc451413"><path d="M 20.960938 43.433594 L 326.433594 15.691406 L 353.09375 309.246094 L 47.621094 336.988281 Z M 20.960938 43.433594 " clip-rule="nonzero"/></clipPath><clipPath id="9c6b55acdf"><path d="M 20.960938 43.433594 L 326.433594 15.691406 L 353.09375 309.246094 L 47.621094 336.988281 Z M 20.960938 43.433594 " clip-rule="nonzero"/></clipPath><clipPath id="d6da923071"><path d="M 20.960938 43.433594 L 326.433594 15.691406 L 353.09375 309.246094 L 47.621094 336.988281 Z M 20.960938 43.433594 " clip-rule="nonzero"/></clipPath><clipPath id="e57b777955"><path d="M 111 174 L 128 174 L 128 205 L 111 205 Z M 111 174 " clip-rule="nonzero"/></clipPath><clipPath id="e23c5375e9"><path d="M 20.960938 43.433594 L 326.433594 15.691406 L 353.09375 309.246094 L 47.621094 336.988281 Z M 20.960938 43.433594 " clip-rule="nonzero"/></clipPath><clipPath id="cc700be4ae"><path d="M 20.960938 43.433594 L 326.433594 15.691406 L 353.09375 309.246094 L 47.621094 336.988281 Z M 20.960938 43.433594 " clip-rule="nonzero"/></clipPath><clipPath id="615b22489d"><path d="M 20.960938 43.433594 L 326.433594 15.691406 L 353.09375 309.246094 L 47.621094 336.988281 Z M 20.960938 43.433594 " clip-rule="nonzero"/></clipPath></defs><g clip-path="url(#76a129ab96)"><g clip-path="url(#e0735bbed4)"><g clip-path="url(#f12d11286a)"><g clip-path="url(#8b75ac0785)"><path fill="#b7304e" d="M 155.28125 84.242188 C 199.164062 76.355469 241.34375 104.9375 250.339844 148.675781 L 271.757812 258.136719 L 106.558594 287.835938 L 88.574219 177.757812 C 81.800781 133.621094 111.394531 92.128906 155.28125 84.242188 Z M 155.28125 84.242188 " fill-opacity="1" fill-rule="nonzero"/></g></g></g></g><g clip-path="url(#da3c0e37f6)"><g clip-path="url(#e7bb6d2c8b)"><g clip-path="url(#7e3667be45)"><g clip-path="url(#cc47f56456)"><path fill="#f4384f" d="M 116.570312 273.660156 L 100.585938 175.855469 C 97.816406 157.683594 102.160156 139.445312 112.832031 124.492188 C 123.511719 109.523438 139.351562 99.484375 157.4375 96.234375 C 175.523438 92.984375 193.859375 96.875 209.078125 107.191406 C 224.28125 117.5 234.695312 133.078125 238.417969 151.078125 L 257.449219 248.332031 Z M 116.570312 273.660156 " fill-opacity="1" fill-rule="nonzero"/></g></g></g></g><g clip-path="url(#bf29125276)"><g clip-path="url(#384de836a4)"><g clip-path="url(#fe57301365)"><g clip-path="url(#5b4720f936)"><path fill="#d63450" d="M 153.5 97.066406 C 152.789062 97.234375 152.082031 97.414062 151.382812 97.613281 C 151.0625 97.695312 150.738281 97.789062 150.417969 97.878906 C 149.46875 98.152344 148.535156 98.433594 147.605469 98.742188 C 160.519531 96.789062 172.058594 96.789062 182.429688 105.542969 C 195.15625 116.296875 203.578125 138.675781 207.199219 156.691406 L 209.015625 166.109375 C 216.152344 203.175781 195.019531 230.882812 158.449219 240.011719 C 143.742188 243.679688 125.75 246.15625 111.222656 240.867188 L 116.574219 273.660156 L 257.457031 248.332031 L 238.425781 151.078125 C 234.710938 133.078125 224.289062 117.488281 209.085938 107.1875 C 193.867188 96.875 175.53125 92.984375 157.445312 96.234375 C 156.433594 96.417969 155.429688 96.628906 154.4375 96.851562 C 154.125 96.917969 153.820312 96.992188 153.507812 97.066406 Z M 153.5 97.066406 " fill-opacity="1" fill-rule="nonzero"/></g></g></g></g><g clip-path="url(#2d1e52b64f)"><g clip-path="url(#6a52ef9882)"><g clip-path="url(#ba1beccc78)"><g clip-path="url(#d04bd4e5a7)"><path fill="#b22442" d="M 271.765625 258.136719 L 255.703125 176.070312 C 240.851562 197.777344 214.144531 238.570312 199.835938 271.0625 L 271.757812 258.128906 Z M 271.765625 258.136719 " fill-opacity="1" fill-rule="nonzero"/></g></g></g></g><g clip-path="url(#ab893ee285)"><g clip-path="url(#f9e603d6ed)"><g clip-path="url(#46469689ab)"><g clip-path="url(#3368ab4112)"><path fill="#4c4c4c" d="M 295.800781 278.515625 C 296.492188 282.34375 292.964844 283.34375 289.9375 283.898438 C 261.910156 289.011719 223.730469 295.820312 190.320312 301.835938 C 151.917969 308.722656 114.261719 315.53125 99.117188 318.210938 C 97.101562 318.515625 95.039062 318.882812 93.347656 318.28125 C 89.613281 316.589844 90.808594 309.445312 90.945312 303.835938 C 91.222656 299.824219 91.625 295.363281 92.09375 291.308594 C 92.808594 285.914062 93.175781 282.316406 94.832031 278.734375 C 96.652344 274.960938 99.71875 274.136719 105.066406 273.128906 C 136.546875 267.484375 235.433594 249.640625 269.289062 243.628906 C 272.59375 243.128906 275.644531 242.679688 278.359375 244.523438 C 280.964844 246.003906 284.234375 251.800781 286.382812 256.054688 C 290.183594 264.128906 294.300781 271.191406 295.792969 278.421875 L 295.800781 278.507812 Z M 295.800781 278.515625 " fill-opacity="1" fill-rule="nonzero"/><path fill="#424041" d="M 289.945312 283.898438 C 292.972656 283.335938 296.5 282.34375 295.808594 278.511719 L 295.800781 278.429688 C 294.300781 271.199219 290.195312 264.132812 286.390625 256.058594 C 284.242188 251.808594 280.972656 246.011719 278.371094 244.53125 C 275.644531 242.6875 272.59375 243.136719 269.296875 243.636719 C 260.824219 245.140625 248.273438 247.386719 233.71875 249.996094 C 238.34375 260.074219 246.761719 278.957031 246.179688 281.757812 C 240.886719 283.34375 119.273438 304.722656 90.695312 309.734375 C 90.582031 313.625 90.878906 317.164062 93.367188 318.285156 C 95.054688 318.890625 97.117188 318.515625 99.132812 318.214844 C 114.277344 315.539062 151.941406 308.730469 190.335938 301.839844 C 223.746094 295.816406 261.925781 289.011719 289.957031 283.90625 Z M 289.945312 283.898438 " fill-opacity="1" fill-rule="nonzero"/></g></g></g></g><g clip-path="url(#6f1bbcd471)"><g clip-path="url(#d20f461fab)"><g clip-path="url(#c963736ba1)"><g clip-path="url(#86d0d523ff)"><path fill="#7c7c7c" d="M 132.683594 298.226562 C 133.472656 293.421875 133.433594 288.390625 134.390625 283.550781 C 135.101562 279.617188 135.585938 275.34375 138.691406 272.890625 C 139.042969 272.5 141.007812 271.371094 139.808594 271.464844 C 136.371094 271.894531 132.398438 272.753906 129.203125 273.285156 C 124.136719 274.363281 119.53125 274.539062 114.867188 276.554688 C 110.589844 278.597656 109.996094 283.730469 109.199219 288.257812 C 108.574219 292.542969 107.847656 297.394531 107.917969 301.601562 C 107.957031 303.148438 109.007812 303.382812 110.332031 303.144531 C 113.761719 302.5625 121.574219 301.132812 126.886719 300.183594 C 128.6875 299.769531 132.261719 299.59375 132.628906 298.320312 L 132.667969 298.230469 Z M 132.683594 298.226562 " fill-opacity="1" fill-rule="nonzero"/></g></g></g></g><g clip-path="url(#716c12991a)"><g clip-path="url(#64b1139ed8)"><g clip-path="url(#db9dff562c)"><g clip-path="url(#4649f386eb)"><path fill="#b5b5b5" d="M 305.851562 290.171875 C 305.765625 292.988281 304.523438 294.757812 301.863281 295.167969 C 255.878906 303.519531 185.914062 316.015625 136.480469 324.929688 C 116.332031 328.546875 100.132812 331.46875 92.335938 332.863281 C 90.027344 333.417969 87.507812 333.214844 86.347656 330.855469 C 84.457031 327.632812 83.496094 321.664062 84.585938 318.476562 C 85.277344 316.320312 87.339844 315.875 89.40625 315.511719 C 122.246094 310.375 267.949219 281.917969 301.707031 278.164062 C 304.964844 280.078125 305.84375 285.789062 305.84375 290.085938 L 305.835938 290.171875 Z M 305.851562 290.171875 " fill-opacity="1" fill-rule="nonzero"/></g></g></g></g><g clip-path="url(#f231734c66)"><g clip-path="url(#c315373ec7)"><g clip-path="url(#9e6826543a)"><g clip-path="url(#25d6407b30)"><path fill="#d3d3d3" d="M 129.007812 318.492188 C 128.375 320.453125 124.582031 320.648438 121.417969 321.296875 C 118.203125 321.875 114.269531 322.578125 110.53125 323.25 C 107.324219 323.824219 104.230469 324.394531 101.277344 324.910156 C 99.574219 325.152344 97.921875 325.566406 96.605469 324.695312 C 94.828125 323.140625 94.21875 319.785156 95.34375 317.695312 C 96.074219 316.644531 97.457031 316.339844 98.800781 316.039062 C 104.296875 315 115.875 312.957031 122.246094 311.800781 C 123.851562 311.554688 125.648438 311.101562 127.050781 311.675781 C 129.222656 312.890625 129.636719 316.320312 129.054688 318.402344 L 129.015625 318.492188 Z M 129.007812 318.492188 " fill-opacity="1" fill-rule="nonzero"/></g></g></g></g><g clip-path="url(#22441475c5)"><g clip-path="url(#db5e750e9a)"><g clip-path="url(#d6ec323b8c)"><g clip-path="url(#fea5e50599)"><path fill="#a0a0a0" d="M 301.714844 278.164062 C 290.257812 279.4375 265.917969 283.554688 237.472656 288.640625 C 239.632812 294.523438 241.847656 301.234375 237.523438 302.011719 C 230.25 303.320312 134.375 321.484375 85.730469 329.625 C 85.925781 330.066406 86.128906 330.476562 86.347656 330.855469 C 87.507812 333.214844 90.027344 333.417969 92.335938 332.863281 C 100.132812 331.46875 116.324219 328.554688 136.480469 324.929688 C 185.914062 316.015625 255.878906 303.519531 301.863281 295.167969 C 304.519531 294.75 305.765625 292.988281 305.851562 290.171875 L 305.859375 290.085938 C 305.859375 285.792969 304.980469 280.074219 301.722656 278.164062 Z M 301.714844 278.164062 " fill-opacity="1" fill-rule="nonzero"/></g></g></g></g><g clip-path="url(#e57b6a7df8)"><g clip-path="url(#218a858c75)"><g clip-path="url(#d5287a7e27)"><g clip-path="url(#947c2ca688)"><path fill="#d63450" d="M 157.476562 66.0625 C 154.273438 69.28125 148.136719 70.53125 144.367188 67.550781 C 140.285156 63.769531 140.132812 58.058594 138.488281 52.820312 C 137.890625 50.441406 137.269531 48.085938 136.75 45.707031 C 135.921875 41.988281 135.480469 38.074219 138.027344 35.386719 C 141.449219 31.90625 148.21875 30.707031 151.8125 34.5 C 153.820312 36.609375 154.804688 40.058594 155.609375 43.253906 C 156.496094 46.917969 157.289062 50.0625 158.257812 53.734375 C 159.332031 58.171875 160.453125 62.632812 157.597656 65.9375 L 157.484375 66.054688 Z M 157.476562 66.0625 " fill-opacity="1" fill-rule="nonzero"/></g></g></g></g><g clip-path="url(#dd6cf2e4d0)"><g clip-path="url(#a2d315bfe9)"><g clip-path="url(#e78eef7cf4)"><g clip-path="url(#a4d3aa594a)"><path fill="#d63450" d="M 81.097656 115.011719 C 77.507812 116.5625 73.625 114.753906 69.335938 112.742188 C 65.675781 110.957031 62.003906 109.101562 58.570312 107.351562 C 54.382812 105.164062 49.945312 102.898438 49.511719 98.03125 C 49.160156 93.824219 52.503906 89.449219 56.839844 89.257812 C 60.261719 88.992188 64.082031 90.972656 67.785156 92.804688 C 70.222656 94.019531 72.675781 95.253906 75.109375 96.484375 C 79.046875 98.507812 83.210938 100.433594 84.933594 103.628906 C 87.109375 107.507812 85.097656 113.035156 81.226562 114.96875 L 81.101562 115.027344 Z M 81.097656 115.011719 " fill-opacity="1" fill-rule="nonzero"/></g></g></g></g><g clip-path="url(#fed0b65224)"><g clip-path="url(#d39f0b69fa)"><g clip-path="url(#8d53679aa8)"><g clip-path="url(#f0dc6ee01c)"><path fill="#b7304e" d="M 70.238281 186.328125 C 67.546875 190.65625 59.042969 189.929688 53.636719 190.738281 C 48.460938 190.859375 40.539062 193.199219 36.445312 189.84375 C 33.007812 186.574219 33.003906 179.378906 37.59375 177.167969 C 42.664062 175.085938 49.027344 175.410156 54.539062 174.660156 C 60.179688 174.242188 64.132812 173.40625 67.535156 174.925781 C 71.410156 176.90625 72.289062 182.65625 70.300781 186.238281 L 70.238281 186.335938 Z M 70.238281 186.328125 " fill-opacity="1" fill-rule="nonzero"/></g></g></g></g><g clip-path="url(#e38d190a84)"><g clip-path="url(#41aed43445)"><g clip-path="url(#c2c438e1ed)"><g clip-path="url(#c8b2a7cc2d)"><path fill="#b7304e" d="M 306.84375 144.59375 C 304.660156 149.128906 296.207031 149.234375 290.988281 150.628906 C 285.761719 151.40625 280.441406 153.558594 275.308594 152.574219 C 270.054688 150.9375 268.476562 141.957031 273.171875 138.910156 C 275.105469 137.648438 277.914062 137.066406 280.296875 136.546875 C 285.21875 135.554688 291.480469 134.234375 296.078125 133.390625 C 298.996094 132.921875 302.382812 132.363281 304.71875 134.429688 C 307.296875 136.816406 308.214844 141.269531 306.894531 144.484375 Z M 306.84375 144.59375 " fill-opacity="1" fill-rule="nonzero"/></g></g></g></g><g clip-path="url(#73113c2464)"><g clip-path="url(#c94b59e633)"><g clip-path="url(#d5c174213b)"><g clip-path="url(#9a6d855f42)"><path fill="#d63450" d="M 242.167969 94.210938 C 237.863281 93.292969 234.570312 88.433594 235.824219 84.082031 C 236.929688 79.847656 241.351562 76.300781 244.640625 73.128906 C 249.300781 69.195312 254.46875 62.617188 260.574219 62.164062 C 264.507812 61.945312 268.222656 65.128906 268.863281 68.972656 C 269.65625 73.964844 265.691406 77.632812 262.234375 80.957031 C 259.398438 83.613281 256.570312 86.25 253.539062 88.925781 C 249.917969 92.042969 246.410156 94.933594 242.3125 94.238281 Z M 242.167969 94.210938 " fill-opacity="1" fill-rule="nonzero"/></g></g></g></g><g clip-path="url(#d7dbf67e40)"><g clip-path="url(#c0085d28af)"><g clip-path="url(#77239a6f78)"><g clip-path="url(#b133405c5b)"><path fill="#f9c441" d="M 275.867188 171.265625 C 266.292969 176.0625 262.964844 183.597656 255.609375 193.644531 C 244.871094 209.234375 233.363281 225.988281 222.101562 242.351562 C 216.035156 251.214844 211.242188 258.070312 206.40625 265.214844 C 199.574219 274.863281 192.4375 288.507812 203.714844 296.761719 C 207.984375 299.941406 214.441406 301.28125 220.3125 301.84375 C 248.171875 304.132812 289.136719 306.632812 316.804688 308.667969 C 326.207031 309.195312 337.996094 310.808594 345.675781 305.28125 C 357.441406 295.761719 348.339844 281.179688 342.515625 269.027344 C 337.433594 258.890625 330.746094 245.539062 324.035156 232.167969 C 316.179688 216.539062 309.40625 202.921875 303.246094 190.714844 C 298.09375 179.96875 289.429688 165.476562 275.953125 171.234375 L 275.863281 171.273438 Z M 275.867188 171.265625 " fill-opacity="1" fill-rule="nonzero"/></g></g></g></g><g clip-path="url(#9b4510ca78)"><g clip-path="url(#89173f52c1)"><g clip-path="url(#9235c65fea)"><g clip-path="url(#63c48a90da)"><path fill="#f79043" d="M 317.800781 304.972656 C 317.550781 304.957031 317.289062 304.941406 317.046875 304.925781 C 306.261719 304.132812 293.601562 303.277344 280.203125 302.371094 C 259.253906 300.957031 237.59375 299.5 220.667969 298.101562 C 213.921875 297.46875 208.976562 296.003906 205.925781 293.730469 C 205.480469 293.402344 205.035156 293.046875 204.609375 292.648438 C 204.160156 292.230469 203.53125 292.066406 202.933594 292.207031 L 202.910156 292.210938 C 201.484375 292.542969 200.96875 294.335938 202.027344 295.347656 C 202.539062 295.832031 203.105469 296.304688 203.722656 296.761719 C 207.992188 299.941406 214.449219 301.28125 220.320312 301.839844 C 248.179688 304.132812 289.144531 306.632812 316.8125 308.667969 C 316.820312 308.667969 316.832031 308.667969 316.839844 308.667969 C 318.179688 308.738281 319.082031 307.324219 318.445312 306.148438 C 318.230469 305.753906 318.015625 305.367188 317.808594 304.972656 Z M 317.800781 304.972656 " fill-opacity="1" fill-rule="nonzero"/></g></g></g></g><g clip-path="url(#6c5b674a34)"><g clip-path="url(#48855b03b1)"><g clip-path="url(#c76c6902e2)"><g clip-path="url(#dfa10913c5)"><path fill="#f79043" d="M 342.523438 269.027344 C 337.441406 258.890625 330.75 245.539062 324.042969 232.164062 C 316.1875 216.539062 309.410156 202.921875 303.253906 190.714844 C 301.609375 187.28125 299.605469 183.46875 297.199219 180.050781 C 296.527344 179.097656 295.152344 178.980469 294.332031 179.820312 C 293.710938 180.453125 293.613281 181.4375 294.125 182.164062 C 296.390625 185.382812 298.3125 189.0625 299.878906 192.339844 L 299.898438 192.378906 L 299.917969 192.414062 C 303.355469 199.21875 307.011719 206.527344 310.886719 214.265625 C 313.980469 220.4375 317.234375 226.953125 320.707031 233.855469 L 329.917969 252.238281 L 339.167969 270.6875 C 339.761719 271.921875 340.382812 273.183594 341.023438 274.460938 C 347.34375 287.191406 350.945312 296.027344 343.519531 302.21875 L 343.308594 302.375 C 342.890625 302.664062 342.449219 302.9375 341.980469 303.183594 C 341.117188 303.644531 340.742188 304.675781 341.175781 305.558594 C 341.191406 305.597656 341.210938 305.632812 341.222656 305.664062 C 341.664062 306.582031 342.777344 306.980469 343.675781 306.511719 C 344.335938 306.160156 344.980469 305.773438 345.59375 305.335938 L 345.769531 305.203125 C 357.410156 295.679688 348.335938 281.140625 342.53125 269.019531 Z M 342.523438 269.027344 " fill-opacity="1" fill-rule="nonzero"/></g></g></g></g><g clip-path="url(#6dac41fcd8)"><g clip-path="url(#b13e9389ac)"><g clip-path="url(#944fd89d9d)"><g clip-path="url(#54d695b7e6)"><path fill="#f79043" d="M 288.433594 260.363281 C 284.332031 261.445312 276.335938 260.054688 271.765625 259.511719 C 268.417969 258.855469 265.964844 258.585938 265.246094 255.851562 C 264.984375 254.484375 265.242188 252.785156 265.464844 251.21875 C 267.273438 240.066406 270.703125 217.78125 272.640625 206.574219 C 273.394531 200.316406 279.082031 201.484375 284.808594 201.910156 C 288.753906 202.363281 293.753906 202.617188 296.929688 204.03125 C 299.9375 205.484375 298.9375 208.796875 298.644531 211.421875 C 297.007812 221.707031 294.027344 240.382812 292.003906 253.023438 C 291.328125 257.140625 290.917969 259.503906 288.53125 260.320312 L 288.433594 260.355469 Z M 288.433594 260.363281 " fill-opacity="1" fill-rule="nonzero"/></g></g></g></g><g clip-path="url(#bca823b4c6)"><g clip-path="url(#206c6b52bb)"><g clip-path="url(#9b87ff8ae5)"><g clip-path="url(#427a0456b8)"><path fill="#f79043" d="M 284.039062 290.5 C 282.398438 291.730469 279.695312 291.804688 276.242188 291.527344 C 273.097656 291.242188 269.304688 290.910156 266.273438 290.324219 C 261.417969 289.597656 260.023438 286.679688 260.558594 282.550781 C 260.914062 279.089844 261.570312 274.492188 263.230469 272.34375 C 264.820312 270.183594 267.75 270.042969 270.433594 270.160156 C 275.199219 270.710938 284.394531 270.546875 286.859375 273.917969 C 287.6875 275.160156 287.800781 276.476562 287.773438 278.074219 C 287.359375 281.925781 287.238281 287.609375 284.140625 290.410156 L 284.039062 290.484375 Z M 284.039062 290.5 " fill-opacity="1" fill-rule="nonzero"/></g></g></g></g><g clip-path="url(#ff4f42f11d)"><g clip-path="url(#ecedd3a25c)"><g clip-path="url(#5a32b27ff5)"><g clip-path="url(#20ea7855e8)"><path fill="#4c4c4c" d="M 282.277344 255.550781 C 278.425781 256.714844 270.800781 255.292969 266.449219 254.75 C 263.253906 254.074219 260.917969 253.808594 260.140625 250.921875 C 259.847656 249.480469 260.027344 247.695312 260.1875 246.039062 C 261.519531 234.269531 263.988281 210.746094 265.4375 198.910156 C 265.933594 192.300781 271.367188 193.507812 276.804688 193.921875 C 280.554688 194.375 285.304688 194.617188 288.371094 196.09375 C 291.273438 197.609375 290.4375 201.109375 290.253906 203.875 C 289.066406 214.734375 286.882812 234.449219 285.40625 247.792969 C 284.90625 252.144531 284.601562 254.640625 282.367188 255.511719 Z M 282.277344 255.550781 " fill-opacity="1" fill-rule="nonzero"/></g></g></g></g><g clip-path="url(#9fdc0ad775)"><g clip-path="url(#590a9f8c0b)"><g clip-path="url(#ebdbc73cff)"><g clip-path="url(#06b2cedd0f)"><path fill="#4c4c4c" d="M 279.15625 287.359375 C 277.640625 288.667969 275.085938 288.761719 271.796875 288.488281 C 268.808594 288.207031 265.203125 287.871094 262.3125 287.273438 C 257.6875 286.53125 256.261719 283.460938 256.628906 279.105469 C 256.851562 275.457031 257.316406 270.601562 258.808594 268.328125 C 260.234375 266.042969 263.011719 265.878906 265.558594 265.980469 C 270.089844 266.53125 278.804688 266.316406 281.253906 269.855469 C 282.082031 271.160156 282.230469 272.550781 282.265625 274.234375 C 282.011719 278.300781 282.089844 284.300781 279.25 287.273438 L 279.15625 287.351562 Z M 279.15625 287.359375 " fill-opacity="1" fill-rule="nonzero"/></g></g></g></g><g clip-path="url(#9be8ffc62a)"><g clip-path="url(#e7575c5434)"><g clip-path="url(#d64eaa0f41)"><g clip-path="url(#95d778eefb)"><path fill="#ffdd92" d="M 214.957031 277.445312 C 225.792969 262.070312 236.238281 246.421875 246.3125 230.53125 C 248.246094 227.476562 243.140625 225.132812 241.226562 228.144531 C 231.410156 243.628906 221.207031 258.859375 210.640625 273.839844 C 208.570312 276.785156 212.863281 280.40625 214.957031 277.445312 Z M 214.957031 277.445312 " fill-opacity="1" fill-rule="nonzero"/></g></g></g></g><g clip-path="url(#1ec0ca3ae1)"><g clip-path="url(#e757bf3a14)"><g clip-path="url(#2790ffa3cd)"><g clip-path="url(#ae1701870e)"><path fill="#ffdd92" d="M 255.65625 215.613281 L 260.496094 208.175781 C 261.324219 206.90625 261.402344 205.269531 260.136719 204.210938 C 259.074219 203.324219 257.015625 203.292969 256.179688 204.570312 C 254.566406 207.050781 252.953125 209.53125 251.339844 212.011719 C 250.511719 213.28125 250.433594 214.917969 251.699219 215.972656 C 252.761719 216.859375 254.820312 216.890625 255.65625 215.613281 Z M 255.65625 215.613281 " fill-opacity="1" fill-rule="nonzero"/></g></g></g></g><g clip-path="url(#9ba294087e)"><g clip-path="url(#fbbc451413)"><g clip-path="url(#9c6b55acdf)"><g clip-path="url(#d6da923071)"><path fill="#ff6e8d" d="M 139.210938 112.777344 C 122.882812 116.757812 111.640625 132.753906 109.667969 149.046875 C 108.945312 154.019531 109.863281 161.824219 116.054688 162.199219 C 123.886719 161.972656 123.613281 151.601562 125.320312 145.90625 C 126.21875 142.761719 127.632812 139.8125 129.519531 137.160156 C 131.4375 134.453125 133.835938 132.085938 136.542969 130.171875 C 139.835938 127.8125 143.996094 125.9375 146.199219 123.058594 C 150.351562 117.898438 145.460938 111.84375 139.574219 112.746094 L 139.21875 112.777344 Z M 139.210938 112.777344 " fill-opacity="1" fill-rule="nonzero"/></g></g></g></g><g clip-path="url(#e57b777955)"><g clip-path="url(#e23c5375e9)"><g clip-path="url(#cc700be4ae)"><g clip-path="url(#615b22489d)"><path fill="#ff6e8d" d="M 111.972656 181.203125 C 111.167969 186.996094 112.183594 194.425781 114.789062 199.738281 C 117.921875 205.945312 125.441406 205.332031 126.910156 198.441406 C 127.65625 195.253906 127.144531 191.476562 126.660156 187.789062 C 126.121094 183.828125 125.449219 179.675781 123.476562 177.007812 C 119.445312 171.488281 112.953125 175.089844 112.058594 180.835938 L 111.980469 181.203125 Z M 111.972656 181.203125 " fill-opacity="1" fill-rule="nonzero"/></g></g></g></g></svg>