<svg xmlns="http://www.w3.org/2000/svg" xmlns:xlink="http://www.w3.org/1999/xlink" width="500" zoomAndPan="magnify" viewBox="0 0 375.12 383.03998" height="500" preserveAspectRatio="xMidYMid meet" version="1.0"><defs><clipPath id="baff94222f"><path d="M 30.519531 23.570312 L 343.234375 23.570312 L 343.234375 336.289062 L 30.519531 336.289062 Z M 30.519531 23.570312 " clip-rule="nonzero"/></clipPath></defs><g clip-path="url(#baff94222f)"><path fill="#018856" d="M 343.234375 101.757812 L 343.234375 258.117188 C 343.234375 301.265625 308.207031 336.296875 265.058594 336.296875 L 108.699219 336.296875 C 65.550781 336.296875 30.519531 301.265625 30.519531 258.117188 L 30.519531 101.757812 C 30.519531 58.609375 65.550781 23.582031 108.699219 23.582031 L 265.058594 23.582031 C 308.207031 23.582031 343.234375 58.609375 343.234375 101.757812 Z M 343.234375 101.757812 " fill-opacity="1" fill-rule="evenodd"/></g><path fill="#ffffff" d="M 240.542969 63.109375 L 82.746094 63.109375 L 82.746094 289.011719 L 240.542969 289.011719 Z M 240.542969 63.109375 " fill-opacity="1" fill-rule="evenodd"/><path fill="#018856" d="M 167.394531 139.25 L 145.085938 188.378906 L 187.285156 240.382812 L 187.359375 296.789062 L 208.046875 296.726562 L 208.296875 240.03125 L 182.488281 202.75 L 197.628906 161.332031 L 205.707031 186.738281 L 241.84375 186.828125 L 241.84375 166.941406 L 217.914062 166.417969 L 206.359375 133.964844 L 178.65625 120.847656 L 133.851562 120.234375 L 106.652344 155.402344 L 124.273438 162.605469 L 141.023438 139.574219 Z M 167.394531 139.25 " fill-opacity="1" fill-rule="evenodd"/><path fill="#018856" d="M 82.75 232.84375 L 82.75 253.257812 L 140.960938 253.609375 L 159.089844 214.964844 L 144.226562 196.421875 L 129.46875 231.589844 Z M 82.75 232.84375 " fill-opacity="1" fill-rule="evenodd"/><path fill="#018856" d="M 183.390625 103.511719 C 183.390625 104.1875 183.421875 104.867188 183.488281 105.539062 C 183.554688 106.214844 183.65625 106.882812 183.785156 107.550781 C 183.917969 108.214844 184.082031 108.871094 184.28125 109.519531 C 184.476562 110.167969 184.707031 110.804688 184.964844 111.429688 C 185.222656 112.058594 185.511719 112.671875 185.832031 113.269531 C 186.152344 113.867188 186.5 114.445312 186.878906 115.011719 C 187.253906 115.574219 187.65625 116.117188 188.085938 116.640625 C 188.515625 117.164062 188.972656 117.667969 189.453125 118.148438 C 189.929688 118.625 190.433594 119.082031 190.957031 119.511719 C 191.480469 119.941406 192.023438 120.34375 192.589844 120.71875 C 193.152344 121.097656 193.730469 121.445312 194.332031 121.765625 C 194.929688 122.085938 195.539062 122.375 196.167969 122.632812 C 196.792969 122.894531 197.429688 123.121094 198.078125 123.316406 C 198.726562 123.515625 199.382812 123.679688 200.050781 123.8125 C 200.714844 123.945312 201.382812 124.042969 202.058594 124.109375 C 202.734375 124.175781 203.410156 124.210938 204.085938 124.210938 C 204.765625 124.210938 205.441406 124.175781 206.117188 124.109375 C 206.789062 124.042969 207.460938 123.945312 208.125 123.8125 C 208.789062 123.679688 209.445312 123.515625 210.09375 123.316406 C 210.742188 123.121094 211.382812 122.894531 212.007812 122.632812 C 212.632812 122.375 213.246094 122.085938 213.84375 121.765625 C 214.441406 121.445312 215.023438 121.097656 215.585938 120.71875 C 216.148438 120.34375 216.691406 119.941406 217.21875 119.511719 C 217.742188 119.082031 218.242188 118.625 218.722656 118.148438 C 219.203125 117.667969 219.65625 117.164062 220.085938 116.640625 C 220.515625 116.117188 220.917969 115.574219 221.296875 115.011719 C 221.671875 114.445312 222.019531 113.867188 222.339844 113.269531 C 222.660156 112.671875 222.949219 112.058594 223.210938 111.429688 C 223.46875 110.804688 223.695312 110.167969 223.894531 109.519531 C 224.089844 108.871094 224.253906 108.214844 224.386719 107.550781 C 224.519531 106.882812 224.617188 106.214844 224.683594 105.539062 C 224.75 104.867188 224.785156 104.1875 224.785156 103.511719 C 224.785156 102.832031 224.75 102.15625 224.683594 101.484375 C 224.617188 100.808594 224.519531 100.140625 224.386719 99.472656 C 224.253906 98.808594 224.089844 98.152344 223.894531 97.503906 C 223.695312 96.855469 223.46875 96.21875 223.210938 95.589844 C 222.949219 94.964844 222.660156 94.351562 222.339844 93.753906 C 222.019531 93.15625 221.671875 92.574219 221.296875 92.011719 C 220.917969 91.449219 220.515625 90.90625 220.085938 90.378906 C 219.65625 89.855469 219.203125 89.355469 218.722656 88.875 C 218.242188 88.398438 217.742188 87.941406 217.21875 87.511719 C 216.691406 87.082031 216.148438 86.679688 215.585938 86.300781 C 215.023438 85.925781 214.441406 85.578125 213.84375 85.257812 C 213.246094 84.9375 212.632812 84.648438 212.007812 84.390625 C 211.382812 84.128906 210.742188 83.902344 210.09375 83.707031 C 209.445312 83.507812 208.789062 83.34375 208.125 83.210938 C 207.460938 83.078125 206.789062 82.980469 206.117188 82.914062 C 205.441406 82.847656 204.765625 82.816406 204.085938 82.8125 C 203.410156 82.816406 202.734375 82.847656 202.058594 82.914062 C 201.382812 82.980469 200.714844 83.078125 200.050781 83.210938 C 199.382812 83.34375 198.726562 83.507812 198.078125 83.707031 C 197.429688 83.902344 196.792969 84.128906 196.167969 84.390625 C 195.539062 84.648438 194.929688 84.9375 194.328125 85.257812 C 193.730469 85.578125 193.152344 85.925781 192.589844 86.300781 C 192.023438 86.679688 191.480469 87.082031 190.957031 87.511719 C 190.433594 87.941406 189.929688 88.398438 189.453125 88.875 C 188.972656 89.355469 188.515625 89.855469 188.085938 90.378906 C 187.65625 90.90625 187.253906 91.449219 186.878906 92.011719 C 186.5 92.574219 186.152344 93.15625 185.832031 93.753906 C 185.511719 94.351562 185.222656 94.964844 184.964844 95.589844 C 184.707031 96.21875 184.476562 96.855469 184.28125 97.503906 C 184.082031 98.152344 183.917969 98.808594 183.785156 99.472656 C 183.65625 100.140625 183.554688 100.808594 183.488281 101.484375 C 183.421875 102.15625 183.390625 102.832031 183.390625 103.511719 Z M 183.390625 103.511719 " fill-opacity="1" fill-rule="nonzero"/><path fill="#ffffff" d="M 270.316406 197.984375 L 291.015625 176.78125 L 270.855469 155.851562 C 270.855469 155.851562 270.800781 166.730469 270.800781 166.730469 L 243.714844 166.476562 L 243.898438 183.6875 L 270.457031 183.699219 Z M 270.316406 197.984375 " fill-opacity="1" fill-rule="evenodd"/></svg>