<svg xmlns="http://www.w3.org/2000/svg" xmlns:xlink="http://www.w3.org/1999/xlink" width="500" zoomAndPan="magnify" viewBox="0 0 375.12 383.03998" height="500" preserveAspectRatio="xMidYMid meet" version="1.0"><defs><clipPath id="833213ef5e"><path d="M 15.328125 19.761719 L 358.796875 19.761719 L 358.796875 363.230469 L 15.328125 363.230469 Z M 15.328125 19.761719 " clip-rule="nonzero"/></clipPath><clipPath id="d1988ef76d"><path d="M 187.0625 19.761719 C 92.214844 19.761719 15.328125 96.648438 15.328125 191.496094 C 15.328125 286.34375 92.214844 363.230469 187.0625 363.230469 C 281.90625 363.230469 358.796875 286.34375 358.796875 191.496094 C 358.796875 96.648438 281.90625 19.761719 187.0625 19.761719 Z M 187.0625 19.761719 " clip-rule="nonzero"/></clipPath><clipPath id="8ebdcf5deb"><path d="M 0.328125 0.761719 L 343.796875 0.761719 L 343.796875 344.230469 L 0.328125 344.230469 Z M 0.328125 0.761719 " clip-rule="nonzero"/></clipPath><clipPath id="d92b4e67b4"><path d="M 172.0625 0.761719 C 77.214844 0.761719 0.328125 77.648438 0.328125 172.496094 C 0.328125 267.34375 77.214844 344.230469 172.0625 344.230469 C 266.90625 344.230469 343.796875 267.34375 343.796875 172.496094 C 343.796875 77.648438 266.90625 0.761719 172.0625 0.761719 Z M 172.0625 0.761719 " clip-rule="nonzero"/></clipPath><clipPath id="dba27775c9"><rect x="0" width="344" y="0" height="345"/></clipPath></defs><g clip-path="url(#833213ef5e)"><g clip-path="url(#d1988ef76d)"><g transform="matrix(1, 0, 0, 1, 15, 19)"><g clip-path="url(#dba27775c9)"><g clip-path="url(#8ebdcf5deb)"><g clip-path="url(#d92b4e67b4)"><path fill="#ffdce9" d="M 0.328125 0.761719 L 343.796875 0.761719 L 343.796875 344.230469 L 0.328125 344.230469 Z M 0.328125 0.761719 " fill-opacity="1" fill-rule="nonzero"/></g></g></g></g></g></g></svg>